<svg id="Layer_1" data-name="Layer 1" xmlns="http://www.w3.org/2000/svg" viewBox="0 0 360 504"><defs><style>.cls-1{fill:#fff;}.cls-2,.cls-3{fill:#231f20;}.cls-3{stroke:#231f20;stroke-linecap:round;stroke-width:0.33px;}</style></defs><title>Karma_Greeting_Card_back</title><rect class="cls-1" width="360" height="504"/><path class="cls-2" d="M36.9,95.14a8,8,0,0,1-.07-1.24l0-1.47a4.37,4.37,0,0,1,1.53-.19,4.19,4.19,0,0,1,1.39.14l0,0.59q-0.09,1.8-.09,2.15v0h0l-2.64,0H36.9Z"/><path class="cls-2" d="M42,95.14A7.85,7.85,0,0,1,42,93.9l0-1.47a4.36,4.36,0,0,1,1.53-.19,4.2,4.2,0,0,1,1.39.14l0,0.59q-0.1,1.8-.09,2.15v0h0l-2.64,0H42Z"/><path class="cls-2" d="M47.15,95.14a8,8,0,0,1-.07-1.24l0-1.47a4.37,4.37,0,0,1,1.53-.19,4.19,4.19,0,0,1,1.39.14L50,93q-0.09,1.8-.09,2.15v0h0l-2.64,0H47.15Z"/><path class="cls-2" d="M53.23,91.42l2,0A1.25,1.25,0,0,0,56,92.54a1.89,1.89,0,0,0,.82.23,1.1,1.1,0,0,0,1.33-1.17,1.67,1.67,0,0,0,0-.34,0.8,0.8,0,0,0-.31-0.54A1.59,1.59,0,0,0,57,90.34a13.9,13.9,0,0,1-2.6-.68A3.46,3.46,0,0,1,52,86.44a3.31,3.31,0,0,1,.67-2,3,3,0,0,1,1.64-1.19A9.33,9.33,0,0,1,56.72,83a12.6,12.6,0,0,1,2.92.3q2,0.87,2,3.77a11.9,11.9,0,0,1-1.77.14,8.53,8.53,0,0,1-1.58-.14,1.22,1.22,0,0,0,0-.23A1.08,1.08,0,0,0,57.88,86a1.63,1.63,0,0,0-1-.39H56.72a1.21,1.21,0,0,0-.94.61,0.94,0.94,0,0,0-.14.49,1.2,1.2,0,0,0,.14.54,1.63,1.63,0,0,0,1,.77q3.35,0.49,4.14,1.52a3.85,3.85,0,0,1,.61,2,5.8,5.8,0,0,1-.3,1.88q-1,2.11-4,2.11H56.63a5.72,5.72,0,0,1-3.5-1,3.4,3.4,0,0,1-1.39-2.9V91.49A13.92,13.92,0,0,1,53.23,91.42Z"/><path class="cls-2" d="M69,95.4l-2.48-.07a3.67,3.67,0,0,1-2-1,3,3,0,0,1-.87-1.39,6,6,0,0,1-.29-1.77c0-.59,0-1.22,0-1.87s0-1.26,0-1.82a9.55,9.55,0,0,1,0-1.29,5.59,5.59,0,0,1,.13-0.7c0-.17.11-0.35,0.18-0.55a3.4,3.4,0,0,0,.13-0.41,2,2,0,0,1,1.3-1,5.18,5.18,0,0,1,1.71-.33h1l0.72,0a4.35,4.35,0,0,1,3.16,1q0.82,0.54.94,4.21c0,0.19,0,.33,0,0.42a23.36,23.36,0,0,1-.51,5.1,1.29,1.29,0,0,1-.23.4,2.18,2.18,0,0,1-1.11.8,4.62,4.62,0,0,1-1.11.28Zm-1.08-3.32a1.48,1.48,0,0,0,1.68-1,18.21,18.21,0,0,0,.14-1.92,5.75,5.75,0,0,0-.07-1A1.65,1.65,0,0,0,69,86.88a1.43,1.43,0,0,0-.75-0.21,3.25,3.25,0,0,0-.81.11,1.35,1.35,0,0,0-.71.48,1,1,0,0,0-.21.57,12.85,12.85,0,0,0-.09,1.49l0,1.5a1.06,1.06,0,0,0,.48.95A1.89,1.89,0,0,0,67.88,92.08Z"/><path class="cls-2" d="M80.49,78.6l0.84,0q1.94,0.07,2.57.07h0.56v0.09L84.31,90q0,1.85.14,5.08-0.07.26-1.4,0.26l-2.41-.07a2.52,2.52,0,0,0-.44,0q0.12-1.52.12-4l-0.12-8.07a40.93,40.93,0,0,1,.19-4.54v0h0.12Z"/><path class="cls-2" d="M88.5,78.6l2.13,0v0L90.09,80.7A22.45,22.45,0,0,1,89,84.31h0l-2,.16a1,1,0,0,1-.54-0.12q1.26-4.59,1.5-5.76H88.5Z"/><path class="cls-2" d="M93.15,83.51l1.1-.12a0.42,0.42,0,0,1,.3.09,5,5,0,0,1,0,.73v0.51a5.53,5.53,0,0,0,.59-0.35,4,4,0,0,1,2.43-.82,3.52,3.52,0,0,1,2.27.75,1.07,1.07,0,0,1,.23.4l0.56-.33a4,4,0,0,1,2.43-.82,3.52,3.52,0,0,1,2.27.75,3.74,3.74,0,0,1,.51,2.29q0,0.87,0,1.94l-0.07,5.19q0,0.87,0,1.38a26.9,26.9,0,0,1-2.92.09q0-.7,0-2.61t0-2.41q0-.5,0-0.75c0-.16,0-0.29,0-0.39s0-.22,0-0.37a3.74,3.74,0,0,0-.07-0.37l-0.08-.3a1.12,1.12,0,0,0-1.19-.73,1.61,1.61,0,0,0-1,.35v0.68l-0.07,5.41q0,0.91,0,1.4a26.9,26.9,0,0,1-2.93.09q0-.7,0-2.61t0-2.41c0-.34,0-0.58,0-0.75l0-.39c0-.09,0-0.22,0-0.37s0-.28-0.07-0.37a2.24,2.24,0,0,0-.11-0.3,1.12,1.12,0,0,0-1.22-.73,1.51,1.51,0,0,0-.9.34,1.41,1.41,0,0,0-.5,1.11q0,0.3,0,.75l0.09,3.88A10.18,10.18,0,0,1,94.44,95v0.09a1.9,1.9,0,0,1-.91.14l-1.29,0-0.7,0-0.07-9.13q0-2.18,0-2.6a7.43,7.43,0,0,0,.82,0Z"/><path class="cls-2" d="M116.86,78.22l-0.12,12.14q0,2.13.09,4.66a1.54,1.54,0,0,1-1.08.16l-2,0h-0.23q0.12-1.43.12-3.72l-0.16-8.75a43.31,43.31,0,0,1,.19-4.54Z"/><path class="cls-2" d="M124.25,95.47l-2.13-.07a3.33,3.33,0,0,1-1.22-.42,4.42,4.42,0,0,1-1.66-2.47,11.78,11.78,0,0,1-.49-3.38c0-.2,0-0.41,0-0.61a14.09,14.09,0,0,1,.52-3.25,3.47,3.47,0,0,1,2.32-1.87,5.82,5.82,0,0,1,1.8-.3,6.48,6.48,0,0,1,1.66.21q3.18,0.54,3.18,4.84,0,0.47,0,1a13,13,0,0,1-2.26.21q-1.74.07-2.64,0.07a7.43,7.43,0,0,1-1.37-.09V90l0,0.51a1.39,1.39,0,0,0,0,.22l0,0.2a1.31,1.31,0,0,0,0,.21,2.15,2.15,0,0,0,1.33,1.52,2.59,2.59,0,0,0,.55,0,1.32,1.32,0,0,0,.81-0.42,1.92,1.92,0,0,0,.47-1.47V90.67h0.26l1.83,0a2.43,2.43,0,0,1,.87.09q-0.23,3.3-.66,3.65a2.55,2.55,0,0,1-1.87,1A11.64,11.64,0,0,1,124.25,95.47Zm0-8,1.26,0a0.41,0.41,0,0,0,.16,0,0.15,0.15,0,0,0,0-.14V87.19a1.59,1.59,0,0,0-.91-1.52,2.1,2.1,0,0,0-1.1-.23A1.52,1.52,0,0,0,122,87a1.82,1.82,0,0,0,0,.29,0.17,0.17,0,0,0,.1.19,7.65,7.65,0,0,0,1.08,0h1Z"/><path class="cls-2" d="M137.54,95.12l-1,.07a0.38,0.38,0,0,1-.28-0.4,2.91,2.91,0,0,1,0-.55,2.15,2.15,0,0,0,0-.39,4.8,4.8,0,0,1-1.44,1,4,4,0,0,1-1.65.39,2.39,2.39,0,0,1-1.94-1.08,8.35,8.35,0,0,1-1.5-5.19A6.24,6.24,0,0,1,131,85.1a3.52,3.52,0,0,1,2.8-1.57c0.48,0,.84,0,1.07,0a1.7,1.7,0,0,1,.72.28,1.57,1.57,0,0,1,.6.76,2.91,2.91,0,0,1,0-.67,4.47,4.47,0,0,0,.06-0.53,10.24,10.24,0,0,1,1.12,0l2.29,0.12a5.15,5.15,0,0,1,0,.56v0.23q0,0.61,0,1.66l0,5.48q0,1.89,0,2.45t0,0.88a0.4,0.4,0,0,1-.3.42h-0.28ZM135,86.67a2.31,2.31,0,0,0-1.45.43,1.82,1.82,0,0,0-.7,1,6.17,6.17,0,0,0-.14,1.47,2.62,2.62,0,0,0,.56,1.65,1.82,1.82,0,0,0,1.52.73,1.5,1.5,0,0,0,1.15-.42,1.37,1.37,0,0,0,.28-0.89c0-.4,0-0.75,0-1V89.1a6.76,6.76,0,0,0-.18-2.11A1.18,1.18,0,0,0,135,86.67Z"/><path class="cls-2" d="M148.1,83.56l2.41-.09,0.73,0a54.69,54.69,0,0,0-1.7,6.34q-0.95,4.28-1.23,5.36a10,10,0,0,1-1.73.12l-2.67-.07a118.47,118.47,0,0,0-2.43-11.77,8.12,8.12,0,0,0,1,0l1.36,0a6.55,6.55,0,0,1,.91,0q0.14,0.75.42,2.5a36.09,36.09,0,0,0,1.12,5.5,30,30,0,0,0,.88-3.94A24.87,24.87,0,0,1,148.1,83.56Z"/><path class="cls-2" d="M152.87,83.32l0.66,0c0.58,0,1,0,1.38,0h1.15v0.07l-0.12,7.72q0,1.19.09,3.84a1.54,1.54,0,0,1-1.08.16l-2,0h-0.23q0.09-1.15.09-3.07l-0.07-5.43q0-2.2.12-3.32v0Zm3.16-2a1.34,1.34,0,0,1-1,.21l-1.85,0h-0.33l-0.09-2.76V78.29L156,78.36Z"/><path class="cls-2" d="M160,83.51l1.1-.12a0.42,0.42,0,0,1,.3.09,5,5,0,0,1,0,.73v0.51a5.53,5.53,0,0,0,.59-0.35,4,4,0,0,1,2.43-.82,3.52,3.52,0,0,1,2.27.75,3.74,3.74,0,0,1,.52,2.29q0,0.87,0,1.94l-0.07,5.19q0,0.87,0,1.38a26.86,26.86,0,0,1-2.93.09q0-.7,0-2.61t0-2.41c0-.34,0-0.58,0-0.75l0-.39c0-.09,0-0.22,0-0.37s0-.28-0.07-0.37L164,88a1.16,1.16,0,0,0-1.24-.73,1.52,1.52,0,0,0-.9.34,1.41,1.41,0,0,0-.5,1.11q0,0.3,0,.75l0.09,3.88a10.21,10.21,0,0,1-.09,1.64v0.09a1.9,1.9,0,0,1-.91.14l-1.29,0-0.7,0-0.07-9.13q0-2.18,0-2.6a7,7,0,0,0,.82,0Z"/><path class="cls-2" d="M176.95,83.44l1.83,0q0.09,3.35.09,6.53t-0.06,4.76q-0.06,1.58-.06,1.93v0.59a1.6,1.6,0,0,1-.21.91,3.37,3.37,0,0,1-3,1.66l-2,0a3.85,3.85,0,0,1-3.37-1.73,3.55,3.55,0,0,1-.4-1.73,1.13,1.13,0,0,1,0-.23,5.25,5.25,0,0,1,1.4-.16,8.91,8.91,0,0,1,1.59.14,1.3,1.3,0,0,0,.63,1.17,1.23,1.23,0,0,0,.68.23,1.38,1.38,0,0,0,1.47-1.19q0-.58,0-0.8l0-.51a3.91,3.91,0,0,1,0-.42,1.77,1.77,0,0,1-1.22.54l-0.77,0c-0.34,0-.57,0-0.68,0q-2.34,0-3-1.47a6.82,6.82,0,0,1-.66-2.74V90a13.62,13.62,0,0,1,.09-2q0.09-.54.22-1.22a3.57,3.57,0,0,1,.31-1q0.19-.34.49-0.82a2.49,2.49,0,0,1,.68-0.74,4.59,4.59,0,0,1,2.5-.68,1.9,1.9,0,0,1,1.92,1.1c0.06,0,.1,0,0.11-0.07a4.49,4.49,0,0,0,0-.51,1.21,1.21,0,0,1,0-.54A12.05,12.05,0,0,1,176.95,83.44Zm-5.05,6.18v0.21a3.07,3.07,0,0,0,.7,2,2,2,0,0,0,1.66.68,1.18,1.18,0,0,0,1.17-.51,2.83,2.83,0,0,0,.28-1.05,16.72,16.72,0,0,0-.3-3.77,1.35,1.35,0,0,0-1.4-.82,1.56,1.56,0,0,0-1.12.42,3.81,3.81,0,0,0-.94,1.9A5.52,5.52,0,0,0,171.89,89.62Z"/><path class="cls-2" d="M186.66,83.32l0.66,0c0.58,0,1,0,1.38,0h1.15v0.07l-0.12,7.72q0,1.19.09,3.84a1.54,1.54,0,0,1-1.08.16l-2,0h-0.23q0.09-1.15.09-3.07l-0.07-5.43q0-2.2.12-3.32v0Zm3.16-2a1.34,1.34,0,0,1-1,.21l-1.85,0h-0.33l-0.09-2.76V78.29l3.18,0.07Z"/><path class="cls-2" d="M193.63,79.07l2.15,0.12,0.54,0V82.3l0,1.31,3.53-.19a1.47,1.47,0,0,1,.21.94L200,86a2.24,2.24,0,0,0,0,.35h-3.63q0,3.32,0,4.73a2,2,0,0,0,1.36.77,8.3,8.3,0,0,0,1.47.19q0.51,0,.77,0a14.06,14.06,0,0,1,.16,1.93,3.67,3.67,0,0,1-.16,1.23l-1.05,0q-4.47,0-5.36-2.08a37.49,37.49,0,0,1-.37-5.9V86.39q-0.49,0-1.68,0l0.07-2.86,1.66,0,0-2.67q0-1.15.07-1.83Z"/><path class="cls-2" d="M214.46,95.12l-1.1.12a0.42,0.42,0,0,1-.3-0.09,4.77,4.77,0,0,1,0-.73V93.9a5.51,5.51,0,0,0-.59.35,4,4,0,0,1-2.43.82,3.51,3.51,0,0,1-2.27-.75A3.74,3.74,0,0,1,207.2,92q0-.87,0-1.94l0.07-5.19q0-.87,0-1.38a26.9,26.9,0,0,1,2.93-.09q0,0.7,0,2.61t0,2.41q0,0.5,0,.75l0,0.39c0,0.09,0,.22,0,0.37s0,0.28.07,0.37l0.08,0.3a1.16,1.16,0,0,0,1.24.73,1.51,1.51,0,0,0,.9-0.34,1.41,1.41,0,0,0,.5-1.11c0-.17,0-0.39,0-0.66l-0.12-4a7.84,7.84,0,0,1,.12-1.61V83.54a1.9,1.9,0,0,1,.91-0.14l1.29,0,0.7,0,0.07,9.13q0,2.18,0,2.6a7,7,0,0,0-.82,0Z"/><path class="cls-2" d="M221.69,97.67l-0.12,2v0.26a2.57,2.57,0,0,1-1.24.12,10.27,10.27,0,0,1-1.71-.09V98.39l-0.16-12.45q0-1.45,0-2.46l1.83,0a10.9,10.9,0,0,1,1.33.07,0.32,0.32,0,0,1,0,.16l0,0.77c0.09,0.2.17,0.23,0.23,0.09a1.79,1.79,0,0,1,1.73-1l0.7,0a3.45,3.45,0,0,1,1.08.28,3.94,3.94,0,0,1,1,.57,2.89,2.89,0,0,1,.69.87,6.73,6.73,0,0,1,.46,1,6.4,6.4,0,0,1,.26,1.23,23,23,0,0,1,.21,2.62,9.39,9.39,0,0,1-.46,3.09,2.43,2.43,0,0,1-1.42,1.65,5.19,5.19,0,0,1-1.71.34q-2.67,0-2.81-.63l0,2.41v0.68Zm3.51-6.83a4.9,4.9,0,0,0,.16-1.52,3.61,3.61,0,0,0-.58-2,1.81,1.81,0,0,0-1.6-.91,1.26,1.26,0,0,0-1.32.81,8,8,0,0,0-.3,2.61,6.49,6.49,0,0,0,.22,2.24,1.26,1.26,0,0,0,1.2.43A1.92,1.92,0,0,0,225.2,90.84Z"/><path class="cls-2" d="M236.62,79.07l2.15,0.12,0.54,0V82.3l0,1.31,3.53-.19a1.47,1.47,0,0,1,.21.94L243,86a2.22,2.22,0,0,0,0,.35h-3.63q0,3.32,0,4.73a2,2,0,0,0,1.36.77,8.3,8.3,0,0,0,1.48.19q0.51,0,.77,0a14.06,14.06,0,0,1,.16,1.93,3.67,3.67,0,0,1-.16,1.23l-1.05,0q-4.47,0-5.36-2.08a37.49,37.49,0,0,1-.37-5.9V86.39q-0.49,0-1.68,0l0.07-2.86,1.66,0,0-2.67q0-1.15.07-1.83Z"/><path class="cls-2" d="M250.28,95.4l-2.48-.07a3.67,3.67,0,0,1-2-1,3,3,0,0,1-.87-1.39,6,6,0,0,1-.29-1.77q0-.89,0-1.87t0-1.82a9.34,9.34,0,0,1,0-1.29,5.4,5.4,0,0,1,.13-0.7c0-.17.11-0.35,0.18-0.55a3.47,3.47,0,0,0,.13-0.41,2,2,0,0,1,1.3-1,5.17,5.17,0,0,1,1.71-.33h1l0.73,0a4.35,4.35,0,0,1,3.16,1q0.82,0.54.94,4.21c0,0.19,0,.33,0,0.42a23.24,23.24,0,0,1-.52,5.1,1.27,1.27,0,0,1-.23.4,2.17,2.17,0,0,1-1.11.8,4.65,4.65,0,0,1-1.11.28Zm-1.08-3.32a1.48,1.48,0,0,0,1.68-1,18.14,18.14,0,0,0,.14-1.92,5.64,5.64,0,0,0-.07-1,1.65,1.65,0,0,0-.68-1.22,1.44,1.44,0,0,0-.75-0.21,3.25,3.25,0,0,0-.81.11,1.34,1.34,0,0,0-.71.48,1,1,0,0,0-.21.57,12.77,12.77,0,0,0-.09,1.49l0,1.5a1.06,1.06,0,0,0,.48.95A1.89,1.89,0,0,0,249.2,92.08Z"/><path class="cls-3" d="M271.43,95.07a6.55,6.55,0,0,1-1.36.12l-1.9-.07a15.59,15.59,0,0,1-1.91-3.32Q265.14,89.36,265,89q0,0.47,0,1.15L265,95a4.61,4.61,0,0,1-1.15.16,11.09,11.09,0,0,1-2.27-.16,33.78,33.78,0,0,1-.12-3.67l0.16-12.57h0.54l2.6,0q0,0.89,0,2.81t0,2.81a6.17,6.17,0,0,1,.4-0.53,19.8,19.8,0,0,0,1.39-2.38,28,28,0,0,1,1.6-2.74h2a6.06,6.06,0,0,1,1.15.07,20.33,20.33,0,0,1-2,4.16,39.68,39.68,0,0,0-2,3.7Z"/><path class="cls-3" d="M276.18,78.78a1.61,1.61,0,0,1,.44,0,4.41,4.41,0,0,0,.61,0q0.49,0,1.82-.12L281,87l1.75,8.19v0a7,7,0,0,1-1.36.12,8.8,8.8,0,0,1-1.78-.21h0q-0.16-.44-0.52-1.88a11.77,11.77,0,0,0-.59-1.93,0.87,0.87,0,0,0-.44-0.07l-1,0a11.68,11.68,0,0,0-.47,1.9,8.78,8.78,0,0,1-.56,2,2,2,0,0,1-.42,0l-2.93,0,0,0s0.17-.93.47-2.64,0.72-3.87,1.29-6.47S275.53,81,276.18,78.78Zm0.68,9.69h1.73q-0.56-4.89-.89-4.89a0.44,0.44,0,0,0-.19.35Q277.42,84.28,276.86,88.47Z"/><path class="cls-3" d="M295.44,95.09l-3,.09a4.84,4.84,0,0,1-.82,0h0a25.84,25.84,0,0,0-3.25-5.87l0-.07q0,0.4,0,1.58t0.16,4.13a8.41,8.41,0,0,1-2.6.26H284.3q0.09,0,.09-7.38a85.42,85.42,0,0,0-.26-9,31.34,31.34,0,0,1,4.11-.4q1.37,0,2,.07a5,5,0,0,1,2.48.8,5,5,0,0,1,2.34,4.19,1.22,1.22,0,0,1,0,.23,4.16,4.16,0,0,1-.7,2.27,3.46,3.46,0,0,1-3,2h-0.12v0q0.23,0.42,1.92,3A22,22,0,0,1,295.44,95.09ZM289,85a7.12,7.12,0,0,0,1.05-.07,1.34,1.34,0,0,0,1-1.54,1.46,1.46,0,0,0-.59-1.26,1.76,1.76,0,0,0-1.23-.44,4.76,4.76,0,0,0-1.7.37q0,0.33,0,1.4a10.73,10.73,0,0,0,.08,1.47h0C288.18,85,288.62,85,289,85Z"/><path class="cls-3" d="M306.86,95.19a11.35,11.35,0,0,0-1.38-.07l-1.71,0q0-.42-0.08-4t-0.25-5.11a6.57,6.57,0,0,0-.47,1.15,8.06,8.06,0,0,1-1,2.27,0.72,0.72,0,0,1-.4-0.48,8.82,8.82,0,0,1-.36-0.83L301,87.48q-0.13-.34-0.22-0.63t-0.21-.62q-0.12,1.47-.12,3.63t0.19,5.24a9.21,9.21,0,0,1-1.59.12l-1.68,0a0.2,0.2,0,0,1-.09-0.16q0-.16,0-4.5t0-11.38A2,2,0,0,1,298.3,79L300,79h0.42a6.1,6.1,0,0,1,.83,1.78,11.31,11.31,0,0,0,.71,1.75,0.27,0.27,0,0,0,.13.08,0.41,0.41,0,0,0,.16-0.29c0.07-.2.15-0.46,0.25-0.77s0.19-.64.3-1a6.5,6.5,0,0,1,.68-1.61l0.4,0,3.07-.12q0,0.63,0,1.57l0,5q0,1.47,0,2.34Z"/><path class="cls-3" d="M312.29,78.78a1.61,1.61,0,0,1,.44,0,4.39,4.39,0,0,0,.61,0q0.49,0,1.83-.12L317.09,87l1.76,8.19v0a7,7,0,0,1-1.36.12,8.8,8.8,0,0,1-1.78-.21h0q-0.16-.44-0.51-1.88a11.9,11.9,0,0,0-.59-1.93,0.87,0.87,0,0,0-.44-0.07l-1,0a12,12,0,0,0-.47,1.9,8.72,8.72,0,0,1-.56,2,1.94,1.94,0,0,1-.42,0l-2.93,0,0,0s0.17-.93.47-2.64,0.73-3.87,1.29-6.47S311.63,81,312.29,78.78ZM313,88.47h1.73q-0.56-4.89-.89-4.89a0.43,0.43,0,0,0-.19.35Q313.53,84.28,313,88.47Z"/><path class="cls-3" d="M320.27,95.14a7.85,7.85,0,0,1-.07-1.24l0-1.47a4.36,4.36,0,0,1,1.53-.19,4.2,4.2,0,0,1,1.39.14l0,0.59q-0.1,1.8-.09,2.15v0h0l-2.64,0h-0.07Z"/></svg>