<svg id="Layer_1" data-name="Layer 1" xmlns="http://www.w3.org/2000/svg" viewBox="0 0 360 504"><defs><style>.cls-1{fill:#efefef;}.cls-2{fill:#231f20;}</style></defs><title>Karma_Greeting_Card_front</title><rect class="cls-1" width="360" height="504"/><path class="cls-2" d="M49.86,166.1h1.05a4,4,0,0,1,1.24.12,6.65,6.65,0,0,1,.23,1.68,5,5,0,0,1-1.87,4A4.54,4.54,0,0,1,47.59,173a7.61,7.61,0,0,1-1.08.07,7.44,7.44,0,0,1-1.47-.19,3.89,3.89,0,0,1-1.77-1,3,3,0,0,1-1-2q-0.09-2-.09-4.64v-5.58a3,3,0,0,1,.28-1.05,4.8,4.8,0,0,1,1.29-2,3.37,3.37,0,0,1,1.19-.54,5.17,5.17,0,0,1,1.52-.28,5.83,5.83,0,0,1,3.14.73,5.36,5.36,0,0,1,2.85,4.61,6.27,6.27,0,0,1-.28,1.8,6.51,6.51,0,0,1-1.36.12,12.68,12.68,0,0,1-2.06-.21,6.38,6.38,0,0,1-.07-0.79q0-.54-0.07-0.87a1.67,1.67,0,0,0-.66-1.29,1.07,1.07,0,0,0-.54-0.16,5.32,5.32,0,0,0-.76.08,1.3,1.3,0,0,0-.71.29,0.4,0.4,0,0,0-.12.23,12.94,12.94,0,0,0-.21,3.14q0,2.57.09,3.6,0.19,1.82,1.33,2.15l0.26,0q1.57,0,1.64-2.08a9,9,0,0,1,.07-1.08Q49.23,166.1,49.86,166.1Z"/><path class="cls-2" d="M59.81,173l-2.48-.07a3.68,3.68,0,0,1-2-1,3,3,0,0,1-.87-1.39,6,6,0,0,1-.29-1.77q0-.89,0-1.87t0-1.83a9.42,9.42,0,0,1,0-1.29,5.43,5.43,0,0,1,.13-0.7c0-.17.11-0.36,0.18-0.55a3.43,3.43,0,0,0,.13-0.41,2,2,0,0,1,1.3-1,5.18,5.18,0,0,1,1.71-.33h1l0.73,0a4.35,4.35,0,0,1,3.16,1q0.82,0.54.94,4.21c0,0.19,0,.33,0,0.42a23.32,23.32,0,0,1-.51,5.1,1.27,1.27,0,0,1-.23.4,2.18,2.18,0,0,1-1.11.8,4.63,4.63,0,0,1-1.11.28Zm-1.08-3.32a1.48,1.48,0,0,0,1.68-1,18.18,18.18,0,0,0,.14-1.92,5.68,5.68,0,0,0-.07-1,1.65,1.65,0,0,0-.68-1.22,1.43,1.43,0,0,0-.75-0.21,3.25,3.25,0,0,0-.81.11,1.35,1.35,0,0,0-.71.48,1,1,0,0,0-.21.57,12.78,12.78,0,0,0-.09,1.49l0,1.5a1.06,1.06,0,0,0,.48.95A1.89,1.89,0,0,0,58.73,169.68Z"/><path class="cls-2" d="M72.77,172.72l-1.1.12a0.42,0.42,0,0,1-.3-0.09,4.79,4.79,0,0,1,0-.73V171.5a5.36,5.36,0,0,0-.59.35,4,4,0,0,1-2.43.82,3.51,3.51,0,0,1-2.27-.75,3.73,3.73,0,0,1-.51-2.29q0-.86,0-1.94l0.07-5.19c0-.58,0-1,0-1.38a26.9,26.9,0,0,1,2.92-.09q0,0.7,0,2.61t0,2.41q0,0.5,0,.75l0,0.39c0,0.09,0,.22,0,0.37s0,0.28.07,0.37l0.08,0.3a1.16,1.16,0,0,0,1.24.73,1.51,1.51,0,0,0,.9-0.34,1.41,1.41,0,0,0,.5-1.11c0-.17,0-0.39,0-0.66l-0.12-4a7.79,7.79,0,0,1,.12-1.61v-0.09A1.91,1.91,0,0,1,72.4,161l1.29,0,0.7,0,0.07,9.13q0,2.18,0,2.6a7.17,7.17,0,0,0-.82,0Z"/><path class="cls-2" d="M80.07,155.82L80,168q0,2.13.09,4.66a1.53,1.53,0,0,1-1.08.16l-2,0H76.75q0.12-1.43.12-3.72l-0.16-8.75a43.13,43.13,0,0,1,.19-4.54Z"/><path class="cls-2" d="M88.33,158.56l0.12-2v-0.26a2.58,2.58,0,0,1,1.24-.12,10.27,10.27,0,0,1,1.71.09v1.54l0.16,12.45q0,1.45,0,2.46l-1.83,0a10.9,10.9,0,0,1-1.33-.07,0.31,0.31,0,0,1,0-.16l0-.77c-0.09-.2-0.17-0.23-0.23-0.09a1.79,1.79,0,0,1-1.73,1l-0.44,0a3.89,3.89,0,0,1-1.76-.5,3.67,3.67,0,0,1-1.13-1,4.42,4.42,0,0,1-.64-1.51,14.86,14.86,0,0,1-.37-3.39q0-4.26,1.87-4.94a5.16,5.16,0,0,1,1.68-.33q2.67,0,2.81.63l0-2.41v-0.68Zm-3.51,6.83a4.88,4.88,0,0,0-.16,1.52,3.62,3.62,0,0,0,.58,2,1.81,1.81,0,0,0,1.6.91,1.26,1.26,0,0,0,1.32-.81,8.06,8.06,0,0,0,.3-2.61,6.49,6.49,0,0,0-.22-2.23,1.26,1.26,0,0,0-1.2-.43A1.93,1.93,0,0,0,84.82,165.4Z"/><path class="cls-2" d="M95.54,161.11l1.1-.12a0.42,0.42,0,0,1,.3.09,4.88,4.88,0,0,1,0,.73v0.51a5.5,5.5,0,0,0,.59-0.35,4,4,0,0,1,2.43-.82,3.51,3.51,0,0,1,2.27.75,3.74,3.74,0,0,1,.51,2.29q0,0.87,0,1.94l-0.07,5.19c0,0.58,0,1,0,1.38a26.88,26.88,0,0,1-2.92.09q0-.7,0-2.61t0-2.41q0-.5,0-0.75c0-.16,0-0.29,0-0.39s0-.22,0-0.37,0-.28-0.07-0.37l-0.08-.3a1.16,1.16,0,0,0-1.24-.73,1.52,1.52,0,0,0-.9.34,1.41,1.41,0,0,0-.5,1.11q0,0.3,0,.75L96.92,171a10.19,10.19,0,0,1-.09,1.64v0.09a1.91,1.91,0,0,1-.91.14l-1.29,0-0.7,0-0.07-9.13q0-2.18,0-2.6a6.89,6.89,0,0,0,.82,0Z"/><path class="cls-2" d="M106.7,156.2l2.13,0v0l-0.54,2.11a22.59,22.59,0,0,1-1.05,3.6h0l-2,.16a0.94,0.94,0,0,1-.54-0.12q1.26-4.59,1.5-5.76h0.51Z"/><path class="cls-2" d="M112.15,156.67l2.15,0.12,0.54,0v3.13l0,1.31,3.53-.19a1.47,1.47,0,0,1,.21.94l-0.09,1.64a2.23,2.23,0,0,0,0,.35h-3.63q0,3.32,0,4.73a2,2,0,0,0,1.36.77,8.35,8.35,0,0,0,1.47.19q0.51,0,.77,0a14,14,0,0,1,.16,1.93,3.67,3.67,0,0,1-.16,1.23l-1.05,0q-4.47,0-5.36-2.08a37.49,37.49,0,0,1-.37-5.9V164q-0.49,0-1.68,0l0.07-2.85,1.66,0,0-2.67q0-1.15.07-1.83Z"/><path class="cls-2" d="M133.12,172.72l-1,.07a0.38,0.38,0,0,1-.28-0.4,2.91,2.91,0,0,1,0-.55,2.19,2.19,0,0,0,0-.39,4.82,4.82,0,0,1-1.44,1,4,4,0,0,1-1.65.39,2.39,2.39,0,0,1-1.94-1.08,8.35,8.35,0,0,1-1.5-5.19,6.24,6.24,0,0,1,1.13-3.84,3.52,3.52,0,0,1,2.8-1.57c0.48,0,.84,0,1.06,0a1.69,1.69,0,0,1,.73.28,1.57,1.57,0,0,1,.6.76,2.88,2.88,0,0,1,0-.67,4.33,4.33,0,0,0,.06-0.53,10.38,10.38,0,0,1,1.12,0l2.29,0.12a5,5,0,0,1,0,.56v0.23q0,0.61,0,1.66l0,5.48q0,1.9,0,2.45t0,0.88a0.4,0.4,0,0,1-.3.42h-0.28Zm-2.55-8.45a2.31,2.31,0,0,0-1.45.43,1.82,1.82,0,0,0-.7,1,6.18,6.18,0,0,0-.14,1.48,2.63,2.63,0,0,0,.56,1.65,1.82,1.82,0,0,0,1.52.72,1.5,1.5,0,0,0,1.15-.42,1.37,1.37,0,0,0,.28-0.89c0-.4,0-0.75,0-1v-0.49a6.75,6.75,0,0,0-.18-2.11A1.18,1.18,0,0,0,130.57,164.27Z"/><path class="cls-2" d="M145.52,161.7a7,7,0,0,0,0,.88q0,0.83-.12,2l-3.53-.19v8.24l-0.54,0-2.15.12-0.33,0a22.27,22.27,0,0,1-.12-3l0.07-5.24-1.66,0-0.07-2.86q1.19,0,1.68,0c0-.17,0-0.34,0-0.52a5.57,5.57,0,0,1,.47-2.25,3,3,0,0,1,1.93-1.78,10.85,10.85,0,0,1,3.43-.47l1,0a4.23,4.23,0,0,1,.14,1.23,16.26,16.26,0,0,1-.14,1.93h-0.4q-0.35,0-2.53.28a0.86,0.86,0,0,0-.75,1,2.91,2.91,0,0,0,.07.61h3.58Z"/><path class="cls-2" d="M155.09,161.7a7,7,0,0,0,0,.88q0,0.83-.12,2l-3.53-.19v8.24l-0.54,0-2.15.12-0.33,0a22.27,22.27,0,0,1-.12-3l0.07-5.24-1.66,0-0.07-2.86q1.19,0,1.68,0c0-.17,0-0.34,0-0.52a5.57,5.57,0,0,1,.47-2.25,3,3,0,0,1,1.93-1.78,10.85,10.85,0,0,1,3.43-.47l1,0a4.23,4.23,0,0,1,.14,1.23,16.26,16.26,0,0,1-.14,1.93h-0.4q-0.35,0-2.53.28a0.86,0.86,0,0,0-.75,1,2.91,2.91,0,0,0,.07.61h3.58Z"/><path class="cls-2" d="M162.18,173l-2.48-.07a3.68,3.68,0,0,1-2-1,3,3,0,0,1-.87-1.39,6,6,0,0,1-.29-1.77q0-.89,0-1.87t0-1.83a9.42,9.42,0,0,1,0-1.29,5.43,5.43,0,0,1,.13-0.7c0-.17.11-0.36,0.18-0.55a3.43,3.43,0,0,0,.13-0.41,2,2,0,0,1,1.3-1,5.18,5.18,0,0,1,1.71-.33h1l0.73,0a4.35,4.35,0,0,1,3.16,1q0.82,0.54.94,4.21c0,0.19,0,.33,0,0.42a23.35,23.35,0,0,1-.52,5.1,1.29,1.29,0,0,1-.23.4,2.17,2.17,0,0,1-1.11.8,4.62,4.62,0,0,1-1.11.28Zm-1.08-3.32a1.48,1.48,0,0,0,1.68-1,18.18,18.18,0,0,0,.14-1.92,5.68,5.68,0,0,0-.07-1,1.65,1.65,0,0,0-.68-1.22,1.43,1.43,0,0,0-.75-0.21,3.25,3.25,0,0,0-.81.11,1.35,1.35,0,0,0-.71.48,1,1,0,0,0-.21.57,12.78,12.78,0,0,0-.09,1.49l0,1.5a1.06,1.06,0,0,0,.48.95A1.89,1.89,0,0,0,161.1,169.68Z"/><path class="cls-2" d="M169.62,161.11l1.26-.09a0.37,0.37,0,0,1,.26.07c0,0.17,0,.31,0,0.42s0,0.23,0,.37q0.16-.09,1.1-0.44a7,7,0,0,1,2.08-.35,7.58,7.58,0,0,1,1.15,0v4.12a6.57,6.57,0,0,0-1.59-.4,8.21,8.21,0,0,0-1.11-.07,2.56,2.56,0,0,0-1.06.21,1.25,1.25,0,0,0-.68,1.33s0,0.56,0,1.55,0,2.56,0,4.73v0.09a2.14,2.14,0,0,1-1,.14l-1.45,0-0.7,0-0.07-9.13q0-2.18,0-2.6a6.91,6.91,0,0,0,.82,0Z"/><path class="cls-2" d="M183.26,158.56l0.12-2v-0.26a2.58,2.58,0,0,1,1.24-.12,10.26,10.26,0,0,1,1.71.09v1.54l0.16,12.45q0,1.45,0,2.46l-1.83,0a10.87,10.87,0,0,1-1.33-.07,0.3,0.3,0,0,1,0-.16l0-.77c-0.09-.2-0.17-0.23-0.23-0.09a1.79,1.79,0,0,1-1.73,1l-0.44,0a3.89,3.89,0,0,1-1.75-.5,3.65,3.65,0,0,1-1.13-1,4.42,4.42,0,0,1-.64-1.51,14.83,14.83,0,0,1-.37-3.39q0-4.26,1.87-4.94a5.17,5.17,0,0,1,1.69-.33q2.67,0,2.81.63l0-2.41v-0.68Zm-3.51,6.83a4.9,4.9,0,0,0-.16,1.52,3.61,3.61,0,0,0,.59,2,1.81,1.81,0,0,0,1.6.91,1.26,1.26,0,0,0,1.32-.81,8.09,8.09,0,0,0,.3-2.61,6.49,6.49,0,0,0-.22-2.23,1.26,1.26,0,0,0-1.2-.43A1.93,1.93,0,0,0,179.75,165.4Z"/><path class="cls-2" d="M201.52,172.72l-1,.07a0.38,0.38,0,0,1-.28-0.4,2.91,2.91,0,0,1,0-.55,2.15,2.15,0,0,0,0-.39,4.85,4.85,0,0,1-1.44,1,4,4,0,0,1-1.65.39,2.39,2.39,0,0,1-1.94-1.08,8.35,8.35,0,0,1-1.5-5.19,6.24,6.24,0,0,1,1.13-3.84,3.52,3.52,0,0,1,2.8-1.57c0.48,0,.84,0,1.06,0a1.7,1.7,0,0,1,.73.28,1.57,1.57,0,0,1,.6.76,2.85,2.85,0,0,1,0-.67,4.47,4.47,0,0,0,.06-0.53,10.34,10.34,0,0,1,1.12,0l2.29,0.12a4.93,4.93,0,0,1,0,.56v0.23q0,0.61,0,1.66l0,5.48q0,1.9,0,2.45c0,0.37,0,.66,0,0.88a0.4,0.4,0,0,1-.3.42H203ZM199,164.27a2.31,2.31,0,0,0-1.45.43,1.82,1.82,0,0,0-.7,1,6.17,6.17,0,0,0-.14,1.48,2.63,2.63,0,0,0,.56,1.65,1.82,1.82,0,0,0,1.52.72,1.5,1.5,0,0,0,1.15-.42,1.37,1.37,0,0,0,.28-0.89c0-.4,0-0.75,0-1v-0.49a6.75,6.75,0,0,0-.18-2.11A1.18,1.18,0,0,0,199,164.27Z"/><path class="cls-2" d="M222.65,172.7l-3,.09a5,5,0,0,1-.82,0h0a25.74,25.74,0,0,0-3.25-5.87l0-.07q0,0.4,0,1.58t0.17,4.13a8.39,8.39,0,0,1-2.6.26h-1.48q0.09,0,.09-7.38a86,86,0,0,0-.26-9,31.28,31.28,0,0,1,4.11-.4q1.37,0,2,.07a5,5,0,0,1,2.48.8,5,5,0,0,1,2.34,4.19,1.22,1.22,0,0,1,0,.23,4.17,4.17,0,0,1-.7,2.27,3.46,3.46,0,0,1-3,2h-0.12v0q0.23,0.42,1.92,3A22,22,0,0,1,222.65,172.7Zm-6.44-10.06a7.12,7.12,0,0,0,1.05-.07,1.34,1.34,0,0,0,1-1.55,1.45,1.45,0,0,0-.59-1.26,1.76,1.76,0,0,0-1.23-.44,4.75,4.75,0,0,0-1.7.37c0,0.22,0,.69,0,1.4a11,11,0,0,0,.08,1.48h0Q215.63,162.63,216.21,162.63Z"/><path class="cls-2" d="M228.1,169.47l5.15,0.14,1,0v0q0,0.56,0,1.4a6.07,6.07,0,0,1-.23,1.66l-6.65.07q-1.61,0-2.95-.12l-0.12-11q0-2.64.14-5,4-.21,6.81-0.21a22.44,22.44,0,0,1,2.88.07,7.61,7.61,0,0,1,.07,1.05l-0.07,2.27v0a12.69,12.69,0,0,1-2.71.23h-1.22q-1.31,0-2.2,0H228l0,0-0.07,2a1.27,1.27,0,0,0,.12.72q1.26,0.07,2.88.07v0a2.36,2.36,0,0,1,.09,1l0,2.27a6.32,6.32,0,0,1-1.58.14,3.39,3.39,0,0,0-1.25.12,6.62,6.62,0,0,0-.09,1.23q0,0.74.09,1.7Z"/><path class="cls-2" d="M239,156.39a1.59,1.59,0,0,1,.44,0,4.23,4.23,0,0,0,.61,0q0.49,0,1.82-.12l1.92,8.28,1.75,8.19v0a7,7,0,0,1-1.36.12,8.77,8.77,0,0,1-1.78-.21h0q-0.16-.44-0.52-1.88a12,12,0,0,0-.58-1.93,0.88,0.88,0,0,0-.44-0.07l-1,0a11.88,11.88,0,0,0-.47,1.9,8.73,8.73,0,0,1-.56,2,2,2,0,0,1-.42,0l-2.93,0,0,0s0.17-.93.47-2.64,0.73-3.87,1.29-6.47S238.37,158.6,239,156.39Zm0.68,9.69h1.73q-0.56-4.89-.89-4.89a0.43,0.43,0,0,0-.19.35Q240.26,161.89,239.7,166.07Z"/><path class="cls-2" d="M256.9,170.4L257,172a1.42,1.42,0,0,1-.08.51,0.37,0.37,0,0,1-.16.23,1,1,0,0,1-.25,0h-0.54l-4.73.07q-1.66,0-4.16,0v-0.42q0.19-7.18.19-8.1l-0.12-8a4.67,4.67,0,0,1,1.75-.21,5.31,5.31,0,0,1,2,.28q0,1,0,2.81l0.07,8.59v1.29a2.69,2.69,0,0,1,.66,0l5.1,0.19h0.3Z"/><path class="cls-2" d="M269.82,167.2h-0.91a1.56,1.56,0,0,1-.51,0c0-.33,0-0.72,0-1.19s0-.89,0-1.26v0a0,0,0,0,1,0,0l0,0a2,2,0,0,1,1-.22h1.13q0.51,0,1.58.07l1.11,0.07h0l0,0a25.86,25.86,0,0,1,.19,2.95,13,13,0,0,1-.19,2.34,3.15,3.15,0,0,1-2.22,2.78,11.34,11.34,0,0,1-3,.49,5.17,5.17,0,0,1-2-.36,3.4,3.4,0,0,1-1.36-1,6.86,6.86,0,0,1-1.08-3.35q-0.26-2.6-.26-3.77a32.42,32.42,0,0,1,.28-4.86,3.55,3.55,0,0,1,1.36-2.49,4.91,4.91,0,0,1,3.25-.94,5.76,5.76,0,0,1,3.6,1.11,3.84,3.84,0,0,1,1.45,3.24,6.13,6.13,0,0,1-.07,1,4.42,4.42,0,0,1-1.22.08,14,14,0,0,1-1.73-.06q-0.59-1.94-1.59-1.94l-0.41,0-0.49,0a0.72,0.72,0,0,0-.47.2,2.74,2.74,0,0,0-.41,1,12.53,12.53,0,0,0-.35,3.31q0,2.07.13,3.4a2.59,2.59,0,0,0,.74,1.83,1.5,1.5,0,0,0,.85.23,3.31,3.31,0,0,0,1.13-.23,1.19,1.19,0,0,0,.72-0.84,4.64,4.64,0,0,0,.11-0.77,1,1,0,0,0-.08-0.63h-0.3Z"/><path class="cls-2" d="M275.86,156.2l0.84,0q1.94,0.07,2.57.07h0.56v0.09l-0.16,11.16q0,1.85.14,5.08-0.07.26-1.4,0.26l-2.41-.07a2.34,2.34,0,0,0-.44,0q0.11-1.52.12-4l-0.12-8.07a40.61,40.61,0,0,1,.19-4.54v0h0.12Z"/><path class="cls-2" d="M289.69,166.66l-3,.35h0q-0.14,1.59-.19,5.73-1,.09-2.47.09a5.1,5.1,0,0,1-1.63-.12l0-15.84v0a32,32,0,0,1,5.41-.4,29.49,29.49,0,0,1,5.05.35v3.46q-5.1.26-6.25,0.37a2.68,2.68,0,0,0-.23,1.08,1.61,1.61,0,0,0,.15.8,1,1,0,0,0,.18.26,12.71,12.71,0,0,0,1.37.07q0.74,0,1.58-.07a3.87,3.87,0,0,1,.07,1l0,1.78q0,0.66,0,1.08S289.73,166.66,289.69,166.66Z"/><path class="cls-2" d="M297,172.56l0-3.16q0-4.49-.19-9.08l0,0a4.19,4.19,0,0,0-1.58-.23q-1.16,0-1.23,0a5.08,5.08,0,0,1-.14-1.6q0-1.32,0-2.07l0,0q1.64,0,3,0H300a36.17,36.17,0,0,1,3.79.25q0,0.77,0,1.71a13.52,13.52,0,0,1-.14,1.92,6.83,6.83,0,0,0-1,0q-0.7,0-1.87,0h-0.07a21,21,0,0,0,0,2.15q0,2.06.14,10.3v0a10,10,0,0,1-1.64.09l-0.59,0a9.74,9.74,0,0,0-1.61.09v-0.23Z"/><path class="cls-2" d="M304.66,172.74a8,8,0,0,1-.07-1.24l0-1.48a4.38,4.38,0,0,1,1.53-.19,4.17,4.17,0,0,1,1.39.14l0,0.58q-0.09,1.8-.09,2.15v0h0l-2.64,0h-0.07Z"/><path class="cls-2" d="M309.79,172.74a8.05,8.05,0,0,1-.07-1.24l0-1.48a4.39,4.39,0,0,1,1.53-.19,4.16,4.16,0,0,1,1.39.14l0,0.58q-0.1,1.8-.09,2.15v0h0l-2.64,0h-0.07Z"/><path class="cls-2" d="M314.91,172.74a7.86,7.86,0,0,1-.07-1.24l0-1.48a4.38,4.38,0,0,1,1.53-.19,4.17,4.17,0,0,1,1.39.14l0,0.58q-0.1,1.8-.09,2.15v0h0l-2.65,0h-0.07Z"/></svg>