<?xml version="1.0" encoding="utf-8"?>
<!-- Generator: Adobe Illustrator 16.0.3, SVG Export Plug-In . SVG Version: 6.00 Build 0)  -->
<!DOCTYPE svg PUBLIC "-//W3C//DTD SVG 1.1//EN" "http://www.w3.org/Graphics/SVG/1.1/DTD/svg11.dtd">
<svg version="1.1" id="Layer_1" xmlns="http://www.w3.org/2000/svg" xmlns:xlink="http://www.w3.org/1999/xlink" x="0px" y="0px"
	 width="176px" height="46px" viewBox="0 0 176 46" enable-background="new 0 0 176 46" xml:space="preserve">
<g>
	<path fill="#FFFFFF" d="M21.274,22.03c-2.987-0.267-5.78,2.667-1.786,3.808c1.403,0.398,2.171-0.156,2.402,1.637
		c0.237,1.863-1.022,2.527-2.47,3.264c-2.668,1.352-6.204,2.27-9.194,1.537c-6.104-1.502-5.764-8.266-4.483-13.127
		c1.329-5.041,4.689-10.236,9.824-12.099c2.373-0.858,5.189-0.932,5.628,2.064c0.231,1.568-1.641,4.366,0.451,5.413
		c2.289,1.149,3.465-2.65,3.514-4.204c0.08-2.367-0.771-4.911-2.859-6.221C17.647,1.173,10.85,4.715,7.34,7.892
		c-3.963,3.579-6.52,8.64-7.181,13.907c-0.653,5.211,0.599,11.074,5.762,13.557c4.905,2.361,11.153,1.1,15.234-2.262
		c-0.573,2.418-1.331,5.199-2.849,7.229c-1.424,1.908-2.513,1.854-4.625,1.154c-1.644-0.547-3.463-1.346-4.373,0.754
		c-0.811,1.873,0.594,2.719,2.168,3.219c10.93,3.461,14.331-10.184,14.331-18.105C25.808,24.246,24.449,22.311,21.274,22.03"/>
	<path fill="#FFFFFF" d="M37.27,10.479c-0.511-3.389-6.375-2.569-6.375,0.775C30.896,15.336,37.864,14.439,37.27,10.479"/>
	<path fill="#FFFFFF" d="M69.511,24.838c-1.522,1.664-6.757,6.092-9.185,3.85c-2.029-1.873-1.166-9.357,1.086-10.729
		c1.696-1.03,4.437,0.139,6.423-0.343c1.022-0.248,3.234-2.153,1.521-2.391c-2.548-0.351-3.096-0.282-5.743-0.542
		c1.862-2.859,3.961-6.406,2.721-9.91c-1.125-3.177-3.939-3.31-5.974-0.804c-2.113,2.61-2.597,5.847-3.7,8.891
		c-0.364,1.001-0.084,1.075-0.951,1.412c-0.375,0.148-1.461-0.046-1.972-0.035c-0.886,0.021-2.5-0.146-2.706,0.924
		c-0.264,1.379,1.741,1.337,2.571,1.472c0.424,0.073,1.053,0.085,1.446,0.284c1.088,0.55,0.77,0.318,0.642,1.701
		c-0.031,0.299-0.037,0.603-0.061,0.907c-0.746,0.289-1.5,0.894-2.206,1.278c-1.499,0.828-3,1.635-4.701,1.963
		c-1.403,0.266-3.024-0.348-4.307,0.179c0.781-2.025,2.849-4.083,4.015-5.999c1.321-2.17,2.53-4.427,3.461-6.789
		c0.851-2.164,2.159-5.584,0.507-7.714c-1.523-1.962-4.281-1.576-6.075-0.249c-4.376,3.247-5.665,10.519-6.612,15.501
		c-0.528,2.795-1.002,5.674-1.345,8.562c-1.368,1.248-4.376,4.443-5.929,3.463c-1.382-0.867,0.165-5.199,0.472-6.429
		c0.373-1.499,2.068-4.669,1.638-6.249c-0.697-2.586-4.017-0.034-4.561,1.406c-1.244,3.281-2.991,8.455-2.427,11.982
		c0.83,5.182,7.517,1.871,10.452-0.383c-0.085,1.266-0.138,2.527-0.138,3.779c0,2.768,0.059,7.277,2.604,9.109
		c2.367,1.703,5.047-0.072,6.285-2.252c2.668-4.693,2.01-9.914-0.641-14.406c3.518-0.146,6.615-1.186,9.423-2.91
		c0.072,1.717,0.292,3.428,0.752,5.045c0.719,2.521,2.29,5.092,5.298,4.699c2.299-0.303,4.812-1.551,6.697-3.094
		c1.71-1.4,1.856-4.314,1.693-4.865C69.822,24.611,69.511,24.838,69.511,24.838 M46.926,6.552c0.115-0.251,0.115-0.249,0.068-0.152
		c0.416-0.941,1.218-2.772,2.622-1.908c1.248,0.768,0.355,2.888-0.029,3.864c-1.487,3.781-3.962,7.097-5.947,10.621
		C44.2,14.617,45.123,10.589,46.926,6.552 M42.661,39.443c-1.823-0.674-0.614-14.744-0.157-14.744c1.916,0,2.082,6.744,2.122,7.781
		C44.67,33.625,44.972,40.309,42.661,39.443 M61.607,7.657c0.581-1.182,2.307-2.714,2.307-0.358c0,1.445-0.898,2.986-1.537,4.246
		c-0.69,1.356-1.098,2.977-2.709,2.818C60.165,12.142,60.592,9.711,61.607,7.657"/>
	<path fill="#FFFFFF" d="M87.74,5.682c2.246-0.643,13.141,1.377,13.802-0.856c0.792-2.691-3.052-2.412-4.686-2.523
		c-5.347-0.364-10.823-0.241-16.144,0.44c-4.289,0.546-11.435,1.86-11.223,7.45c-0.014-0.216-0.037-0.469-0.002,0.116
		c0.012,0.11,0.014,0.098,0.012,0.039c0.179,1.452,1.458,2.178,2.845,2.097c1.941-0.116,2.007-1.067,2.571-2.537
		c1.292-3.36,5.04-3.586,8.378-4.043c-1.216,4.803-2.536,9.572-3.908,14.329c-0.616,2.142-1.15,4.27-1.572,6.455
		c-0.342,1.744-1.936,5.689-0.731,7.279c1.514,1.988,3.92,0.07,4.579-1.551c0.704-1.736,0.834-3.936,1.205-5.756
		c1.006-4.971,2.015-9.942,3.024-14.913c0.217-1.081,0.447-2.159,0.61-3.247C86.597,7.84,86.85,5.369,87.74,5.682"/>
	<path fill="#FFFFFF" d="M90.209,11.254c0,4.082,6.967,3.189,6.376-0.775C96.073,7.09,90.209,7.912,90.209,11.254"/>
	<path fill="#FFFFFF" d="M159.536,25.154c-0.167-0.543-0.473-0.316-0.473-0.316c-1.525,1.664-6.757,6.092-9.188,3.85
		c-2.027-1.873-1.166-9.357,1.086-10.729c1.698-1.03,4.438,0.139,6.425-0.343c1.022-0.248,3.233-2.153,1.52-2.391
		c-2.546-0.351-3.096-0.282-5.74-0.542c1.861-2.859,3.96-6.406,2.717-9.91c-1.12-3.177-3.938-3.31-5.971-0.804
		c-2.114,2.61-2.592,5.847-3.7,8.891c-0.365,1.001-0.081,1.075-0.952,1.412c-0.375,0.148-1.457-0.046-1.971-0.035
		c-0.886,0.021-2.499-0.146-2.705,0.924c-0.26,1.379,1.737,1.337,2.573,1.472c0.424,0.073,1.054,0.085,1.442,0.284
		c1.088,0.55,0.77,0.318,0.641,1.701c-0.171,1.822-0.214,3.716-0.077,5.585c-0.027-0.063-0.055-0.122-0.082-0.187
		c-1.959,2.5-8.52,8.645-11.186,3.936c0.028-0.025,0.042-0.047,0.065-0.072c5.688-3.26,7.253-4.134,7.204-8.012
		c-0.047-3.642-4.841-4.733-7.674-2.945c-3.242,2.043-4.852,7.105-4.012,11.045c-2.371,1.441-5.061,2.66-6.203,1.6
		c-1.947-1.801,3.51-7.004,4.193-8.611c1.415-3.317-1.253-6.481-4.726-4.214c-2.29,1.494-4.047,4.716-5.706,6.86l-0.418-0.267
		c2.393-3.578,12.728-21.285,5.537-23.183c-4.544-1.198-7.19,5.035-8.174,8.264c-1.456,4.786-2.096,9.715-2.453,14.691
		c-0.031,0.435-0.136,1.21-0.237,2.13c-1.667,1.982-4.356,4.68-6.859,4.602c-2.83-0.084-3.052-3.389-2.74-5.516
		c0.155-1.094,2.312-7.188,3.828-4.485c0.591,1.056-0.952,2.421-0.023,3.455c0.758,0.841,1.971,0.364,2.669-0.247
		c2.438-2.137,1.222-5.88-1.598-6.86c-2.777-0.97-5.494,0.378-7.102,2.635c-1.459,2.049-2.318,5.059-2.171,7.797
		c-1.492,1.412-4.128,4-5.542,3.104c-1.384-0.867,0.167-5.199,0.47-6.429c0.373-1.499,2.068-4.669,1.641-6.249
		c-0.696-2.586-4.015-0.034-4.562,1.406c-1.244,3.281-2.993,8.455-2.429,11.982c0.897,5.584,8.597,1.307,11.065-0.885
		c0.878,2.111,2.684,3.623,5.749,3.623c2.93,0,5.517-2.145,7.404-4.168c0.06,2.379,0.629,4.453,2.623,4.137
		c1.827-0.283,3.055-3.711,3.84-5.08c1.046-1.807,1.957-4.215,3.39-5.771c0.471-0.51,1.749-1.641,1.78-0.101
		c0.008,0.609-0.812,1.102-1.146,1.495c-1.238,1.459-2.228,3.283-2.695,5.176c-1.262,5.133,6.042,4.293,8.945,2.83
		c0.952-0.477,1.795-0.938,2.55-1.375c1.014,1.701,2.732,2.857,5.312,2.857c3.374,0,7.914-2.246,9.978-4.945
		c0.045-0.059,0.068-0.115,0.105-0.174c0.03,0.117,0.042,0.244,0.079,0.363c0.714,2.521,2.287,5.092,5.296,4.699
		c2.297-0.303,4.812-1.551,6.701-3.094C159.553,28.619,159.703,25.705,159.536,25.154 M151.156,7.657
		c0.585-1.182,2.311-2.714,2.311-0.358c0,1.445-0.899,2.986-1.541,4.246c-0.688,1.356-1.096,2.977-2.709,2.818
		C149.717,12.142,150.145,9.711,151.156,7.657 M116.777,10.456c0.379-1.59,1.431-6.485,3.685-6.485c1.128,0-1.651,6.734-1.92,7.475
		c-1.188,3.281-2.246,6.617-3.343,9.927C115.467,17.719,115.93,14.026,116.777,10.456 M137.183,19.396
		c3.084,1.355-4.023,6.02-4.023,6.02C131.703,23.055,134.551,18.24,137.183,19.396"/>
</g>
<path fill="#FFFFFF" d="M163.64,7.039v4.268h-1.324V7.039h-1.515V6.008h4.353v1.031H163.64z M170.778,11.307V7.552h-0.027
	l-1.373,3.754h-0.892l-1.376-3.754h-0.023v3.754h-1.244V6.008h1.76l1.336,3.486l1.336-3.486h1.747v5.299H170.778z"/>
</svg>
