<?xml version="1.0" encoding="utf-8"?>
<!-- Generator: Adobe Illustrator 16.0.3, SVG Export Plug-In . SVG Version: 6.00 Build 0)  -->
<!DOCTYPE svg PUBLIC "-//W3C//DTD SVG 1.1//EN" "http://www.w3.org/Graphics/SVG/1.1/DTD/svg11.dtd">
<svg version="1.1" id="Layer_1" xmlns="http://www.w3.org/2000/svg" xmlns:xlink="http://www.w3.org/1999/xlink" x="0px" y="0px"
	 width="267.439px" height="36.732px" viewBox="0 0 267.439 36.732" enable-background="new 0 0 267.439 36.732"
	 xml:space="preserve">
<path fill="#FFFFFF" d="M0,19.346C0,10.097,5.199,0,15.551,0c3.708,0,9.417,1.575,9.417,6.179c0,2.47-1.705,3.88-4.388,3.88
	c-1.745,0,0.597-4.006-4.815-4.006c-6.221,0-8.862,6.348-8.862,11.674c0,8.14,5.54,11.42,9.246,11.42c6.943,0,7.541-6.22,7.924-6.22
	c0.6,0,0.94,3.407,0.94,3.833c0,6.305-4.858,9.973-10.824,9.973C4.515,36.732,0,27.95,0,19.346"/>
<path fill="#FFFFFF" d="M46.856,36.091c-0.383,0-1.618,0.127-1.618-0.513c0-1.189,3.279-5.453,3.279-10.31
	c0-1.919-1.828-2.641-3.748-2.641c-3.875,0-10.057,0.68-10.057,5.536c0,3.367,2.771,6.988,2.771,7.628
	c0,0.254-0.256,0.299-0.811,0.299h-6.092c-2.174,0-2.768-3.834-2.768-9.378C27.814,8.479,40.469,0,42.342,0
	c1.405,0,12.399,6.093,12.399,25.864c0,11.377-1.834,10.227-3.111,10.227H46.856z M35.652,17.173c0,0.509,0.298,0.808,0.811,0.808
	c0.766,0,4.899-1.106,8.648-1.106c1.49,0,2.175-0.213,2.175-1.406c0-2.642-3.154-8.178-4.773-8.178
	C40.21,7.29,35.652,14.063,35.652,17.173"/>
<path fill="#FFFFFF" d="M69.769,5.754c-2.131,0-4.857,1.062-4.857,3.537c0,3.068,4.22,4.257,6.565,5.069
	c8.946,2.983,10.775,7.283,10.775,11.334c0,4.945-3.535,11.038-12.525,11.038c-6.05,0-12.185-3.241-12.185-10.017
	c0-3.621,2.174-5.752,2.6-5.752c0.721,0,0,8.648,9.16,8.648c3.236,0,6.051-1.406,6.051-4.048c0-3.108-3.836-4.388-6.307-5.155
	c-9.33-2.898-10.355-7.114-10.355-10.734C58.69,6.093,61.121,0,69.769,0c6.179,0,10.57,3.28,10.57,4.519
	c0,1.19-2.216,5.069-3.411,5.069C75.863,9.588,74.202,5.754,69.769,5.754"/>
<path fill="#FFFFFF" d="M104.313,36.091c-0.424,0-1.575,0.044-1.575-0.641c0-0.21,0.041-0.423,0.127-0.594
	c1.494-3.921,2.726-7.925,2.726-12.146c0-2.896-1.147-3.873-4.004-3.873c-4.304,0-8.904,2.043-8.904,6.987
	c0,3.066,0.554,6.388,1.747,9.203c0.085,0.169,0.171,0.469,0.171,0.637c0,0.596-1.023,0.427-1.364,0.427h-6.266
	c-1.19,0-1.19-12.274-1.19-14.103c0-3.113,0.85-21.349,2.896-21.349h5.795c0.257,0,1.278-0.128,1.278,0.385
	c0,0.553-2.899,6.728-2.899,11.245c0,1.068,0.386,2.091,1.025,2.091c1.32,0,1.32-1.279,7.115-1.279c2.087,0,3.749,0.472,3.749-1.32
	c0-4.049-3.749-10.141-3.749-10.695c0-0.554,1.278-0.426,1.532-0.426h5.583c1.619,0,3.705,12.27,3.705,21.349
	c0,2.042,0,14.103-1.36,14.103H104.313z"/>
<path fill="#FFFFFF" d="M123.86,29.271c0.553,0,1.064-0.509,2.473-0.509c2.255,0,4.047,0.852,5.155,0.852
	c1.62,0,2.979-1.491,2.979-3.577c0-0.981-0.638-1.921-0.167-1.921c0.339,0,2.385,2.384,2.385,5.368c0,4.264-3.577,7.246-6.222,7.246
	c-2.09,0-5.45-1.152-7.371-1.152c-2.131,0-4.475,1.152-5.539,1.152c-1.362,0-1.661-1.108-1.661-2.302
	c0-14.786,14.402-16.661,14.402-23.267c0-2.384-1.066-4.518-3.667-4.518c-4.43,0-6.174,6.693-6.987,6.693
	c-0.427,0-3.024-4.686-3.024-5.154c0-2.177,3.838-7.29,9.886-7.29c5.794,0,10.013,3.281,10.013,9.162
	c0,10.564-13.507,13.679-13.507,18.238C123.008,29.059,123.477,29.271,123.86,29.271"/>
<path fill="#FFFFFF" d="M156.784,0.64c6.987,0,8.438,5.069,8.438,7.586c0,11.417-16.661,13.081-16.661,18.446
	c0,3.583,1.495,8.778,1.495,9.036c0,0.51-0.981,0.383-1.28,0.383h-5.668c-1.065,0-2.343,0.808-2.343-15.169
	c0-21.047,2.216-20.282,2.938-20.282H156.784z M158.317,9.588c0-2.938-2.556-3.921-5.109-3.921c-3.071,0-5.585,0.471-5.541,10.269
	c0,1.024,0.086,1.96,1.321,1.96C151.202,17.896,158.317,12.655,158.317,9.588"/>
<path fill="#FFFFFF" d="M184.091,36.091c-0.385,0-1.618,0.127-1.618-0.513c0-1.189,3.278-5.453,3.278-10.31
	c0-1.919-1.832-2.641-3.751-2.641c-3.876,0-10.056,0.68-10.056,5.536c0,3.367,2.771,6.988,2.771,7.628
	c0,0.254-0.257,0.299-0.812,0.299h-6.093c-2.173,0-2.767-3.834-2.767-9.378C165.045,8.479,177.7,0,179.572,0
	c1.406,0,12.399,6.093,12.399,25.864c0,11.377-1.835,10.227-3.11,10.227H184.091z M172.883,17.173c0,0.509,0.299,0.808,0.81,0.808
	c0.767,0,4.902-1.106,8.648-1.106c1.489,0,2.173-0.213,2.173-1.406c0-2.642-3.153-8.178-4.771-8.178
	C177.443,7.29,172.883,14.063,172.883,17.173"/>
<path fill="#FFFFFF" d="M207,5.754c-2.134,0-4.858,1.062-4.858,3.537c0,3.068,4.22,4.257,6.567,5.069
	c8.945,2.983,10.771,7.283,10.771,11.334c0,4.945-3.535,11.038-12.524,11.038c-6.05,0-12.187-3.241-12.187-10.017
	c0-3.621,2.178-5.752,2.602-5.752c0.721,0,0,8.648,9.158,8.648c3.239,0,6.053-1.406,6.053-4.048c0-3.108-3.837-4.388-6.307-5.155
	c-9.328-2.898-10.354-7.114-10.354-10.734C195.921,6.093,198.352,0,207,0c6.181,0,10.567,3.28,10.567,4.519
	c0,1.19-2.214,5.069-3.409,5.069C213.095,9.588,211.433,5.754,207,5.754"/>
<path fill="#FFFFFF" d="M234.516,5.754c-2.133,0-4.86,1.062-4.86,3.537c0,3.068,4.22,4.257,6.567,5.069
	c8.945,2.983,10.772,7.283,10.772,11.334c0,4.945-3.535,11.038-12.523,11.038c-6.051,0-12.186-3.241-12.186-10.017
	c0-3.621,2.177-5.752,2.6-5.752c0.721,0,0,8.648,9.161,8.648c3.236,0,6.049-1.406,6.049-4.048c0-3.108-3.835-4.388-6.307-5.155
	c-9.326-2.898-10.354-7.114-10.354-10.734c0-3.582,2.432-9.675,11.08-9.675c6.178,0,10.566,3.28,10.566,4.519
	c0,1.19-2.215,5.069-3.41,5.069C240.608,9.588,238.947,5.754,234.516,5.754"/>
<path fill="#FFFFFF" d="M253.661,3.005v7.07h-2.173v-7.07h-2.491V1.302h7.155v1.703H253.661z M265.396,10.075V3.857h-0.045
	l-2.256,6.218h-1.469l-2.259-6.218h-0.042v6.218h-2.046V1.302h2.896l2.195,5.771l2.194-5.771h2.875v8.773H265.396z"/>
</svg>
