<svg id="Layer_1" data-name="Layer 1" xmlns="http://www.w3.org/2000/svg" viewBox="0 0 404.65 98.18"><defs><style>.cls-1{fill:#009cde;}.cls-2{fill:#003087;}.cls-3{fill:#012169;}</style></defs><title>pp_h_rgb</title><path class="cls-1" d="M311.63,22H289.38a3.09,3.09,0,0,0-3.05,2.61l-9,57.05a1.85,1.85,0,0,0,1.83,2.14h11.42a2.16,2.16,0,0,0,2.14-1.83l2.55-16.17a3.09,3.09,0,0,1,3.05-2.61h7c14.66,0,23.11-7.09,25.32-21.15,1-6.15,0-11-2.84-14.36C324.68,23.92,319.07,22,311.63,22Zm2.57,20.84c-1.22,8-7.32,8-13.22,8h-3.36L300,35.87a1.85,1.85,0,0,1,1.83-1.57h1.54c4,0,7.81,0,9.77,2.29C314.28,38,314.64,40,314.2,42.79Z"/><path class="cls-2" d="M152.93,22H130.68a3.09,3.09,0,0,0-3.05,2.61l-9,57.05a1.85,1.85,0,0,0,1.83,2.14h10.62a3.09,3.09,0,0,0,3.05-2.61l2.43-15.39a3.09,3.09,0,0,1,3.05-2.61h7c14.66,0,23.11-7.09,25.32-21.15,1-6.15,0-11-2.84-14.36C166,23.92,160.38,22,152.93,22Zm2.57,20.84c-1.22,8-7.32,8-13.22,8h-3.36l2.35-14.91a1.85,1.85,0,0,1,1.83-1.57h1.54c4,0,7.81,0,9.76,2.29C155.59,38,155.94,40,155.5,42.79Z"/><path class="cls-2" d="M219.44,42.54H208.78a1.85,1.85,0,0,0-1.83,1.57l-0.47,3L205.74,46c-2.31-3.35-7.45-4.47-12.58-4.47-11.77,0-21.83,8.92-23.78,21.43-1,6.24.43,12.21,4,16.37,3.25,3.82,7.89,5.42,13.42,5.42a20.4,20.4,0,0,0,14.75-6.1l-0.48,3a1.85,1.85,0,0,0,1.83,2.14h9.59a3.09,3.09,0,0,0,3.05-2.61l5.76-36.47A1.85,1.85,0,0,0,219.44,42.54ZM204.59,63.27a11.88,11.88,0,0,1-12,10.17,8.25,8.25,0,0,1-8.82-10.36,11.92,11.92,0,0,1,11.94-10.25,9,9,0,0,1,7.1,2.9A9.17,9.17,0,0,1,204.59,63.27Z"/><path class="cls-1" d="M378.13,42.54H367.48a1.85,1.85,0,0,0-1.83,1.57l-0.47,3L364.43,46c-2.31-3.35-7.45-4.47-12.58-4.47-11.77,0-21.83,8.92-23.78,21.43-1,6.24.43,12.21,4,16.37,3.25,3.82,7.89,5.42,13.42,5.42a20.4,20.4,0,0,0,14.75-6.1l-0.48,3a1.85,1.85,0,0,0,1.83,2.14h9.59a3.09,3.09,0,0,0,3.05-2.61L380,44.68A1.85,1.85,0,0,0,378.13,42.54ZM363.28,63.27a11.88,11.88,0,0,1-12,10.17,8.25,8.25,0,0,1-8.82-10.36,11.92,11.92,0,0,1,11.94-10.25,9,9,0,0,1,7.1,2.9A9.18,9.18,0,0,1,363.28,63.27Z"/><path class="cls-2" d="M276.18,42.54H265.47a3.09,3.09,0,0,0-2.56,1.36L248.14,65.65l-6.26-20.91a3.09,3.09,0,0,0-3-2.21H228.39A1.86,1.86,0,0,0,226.64,45L238.43,79.6,227.34,95.25a1.85,1.85,0,0,0,1.51,2.93h10.7a3.09,3.09,0,0,0,2.54-1.33l35.61-51.4A1.86,1.86,0,0,0,276.18,42.54Z"/><path class="cls-1" d="M390.69,23.52l-9.13,58.1a1.85,1.85,0,0,0,1.83,2.14h9.18a3.09,3.09,0,0,0,3.05-2.61l9-57.05A1.85,1.85,0,0,0,402.8,22H392.52A1.85,1.85,0,0,0,390.69,23.52Z"/><path class="cls-2" d="M42.15,94.13l3-19,0.19-1.05a3.9,3.9,0,0,1,3.85-3.29h2.37a43.28,43.28,0,0,0,10.81-1.26,27.44,27.44,0,0,0,9.07-4.11A24.49,24.49,0,0,0,78.28,58a35.42,35.42,0,0,0,4.15-11.4,29.81,29.81,0,0,0,.42-10.29,15.52,15.52,0,0,0-3.58-7.93A15.12,15.12,0,0,0,74.95,25l0,0v0a25.64,25.64,0,0,0-.07-9.85,17.47,17.47,0,0,0-4.05-7.64C66.49,2.56,58.68.08,47.57,0.08H17.05A4.29,4.29,0,0,0,12.82,3.7L0.11,84.27a2.54,2.54,0,0,0,2.51,2.94H21.55l0,0.09-1.3,8.24a2.22,2.22,0,0,0,2.19,2.56H38.3A3.74,3.74,0,0,0,42,94.94Z"/><path class="cls-2" d="M31.27,25A3.82,3.82,0,0,1,35,21.82H59a49.89,49.89,0,0,1,7.89.57q1,0.17,2,.38t1.9,0.49l0.9,0.28A21.59,21.59,0,0,1,75,24.94c1.2-7.64,0-12.83-4.14-17.54C66.29,2.22,58.08,0,47.57,0H17.05a4.37,4.37,0,0,0-4.31,3.69L0,84.26a2.62,2.62,0,0,0,2.59,3H21.46l4.73-30Z"/><path class="cls-1" d="M75,24.94h0c-0.09.58-.19,1.18-0.31,1.79-4,20.66-17.79,27.8-35.38,27.8h-9A4.35,4.35,0,0,0,26,58.22h0L21.46,87.29l-1.3,8.25a2.29,2.29,0,0,0,2.26,2.65H38.3A3.82,3.82,0,0,0,42.07,95l0.16-.81,3-19,0.19-1a3.82,3.82,0,0,1,3.77-3.22h2.37c15.38,0,27.43-6.25,30.95-24.32C84,39,83.22,32.73,79.33,28.3A15.12,15.12,0,0,0,75,24.94Z"/><path class="cls-3" d="M70.77,23.27q-0.92-.27-1.9-0.49t-2-.38A49.89,49.89,0,0,0,59,21.82H35A3.82,3.82,0,0,0,31.27,25L26.19,57.28,26,58.22a4.35,4.35,0,0,1,4.3-3.69h9c17.58,0,31.35-7.14,35.38-27.8,0.12-.61.22-1.2,0.31-1.79a21.59,21.59,0,0,0-3.31-1.4Z"/></svg>